<svg xmlns="http://www.w3.org/2000/svg" width="643.948" height="467.329" viewBox="0 0 643.948 467.329">
  <g id="Group_777" data-name="Group 777" transform="translate(-710.353 -247.379)">
    <path id="Path_41" data-name="Path 41" d="M242.232-35.873V177.819a18.912,18.912,0,0,1-9.808,16.62,19.823,19.823,0,0,1-19.633-.222L23.722,87.428a18.773,18.773,0,0,1,0-32.911L213.086-52.271a19.823,19.823,0,0,1,19.633-.222,18.914,18.914,0,0,1,9.809,16.62" transform="translate(726.685 510.113) rotate(-31)" fill="rgba(255,201,0,0.36)"/>
    <path id="Path_51" data-name="Path 51" d="M106.53-47.236V39.408a7.668,7.668,0,0,1-3.977,6.739,8.038,8.038,0,0,1-7.96-.09l-76.66-43.3a7.668,7.668,0,0,1-3.948-6.672,7.668,7.668,0,0,1,3.948-6.672l76.779-43.3a8.038,8.038,0,0,1,7.96-.09,7.669,7.669,0,0,1,3.977,6.739" transform="matrix(0.53, 0.848, -0.848, 0.53, 1078.089, 556.615)" fill="rgba(255,201,0,0.36)"/>
    <path id="Path_45" data-name="Path 45" d="M241.659-35.3V184.79a19.588,19.588,0,0,1-9.784,17.118,19.234,19.234,0,0,1-19.583-.229L23.7,91.693a19.643,19.643,0,0,1,0-33.9L212.586-52.19a19.234,19.234,0,0,1,19.583-.229A19.59,19.59,0,0,1,241.953-35.3" transform="translate(1322.798 373.806) rotate(132)" fill="rgba(42,58,255,0.44)"/>
    <path id="Path_52" data-name="Path 52" d="M119.593-45.854V56.236a9.086,9.086,0,0,1-4.538,7.94,8.922,8.922,0,0,1-9.084-.106L18.49,13.053a9.112,9.112,0,0,1,0-15.723l87.617-51.018a8.922,8.922,0,0,1,9.084-.106,9.087,9.087,0,0,1,4.538,7.94" transform="matrix(-0.07, -0.998, 0.998, -0.07, 942.529, 724.824)" fill="rgba(42,58,255,0.44)"/>
  </g>
</svg>
