<svg xmlns="http://www.w3.org/2000/svg" width="15" height="16" viewBox="0 0 19.301 21.767">
    <path id="Path_13" fill="#46506e" fill-rule="evenodd" d="M13.072 7.481h.373V5.666c0-.876 2.112-.908 2.112.039v1.776h8.385V5.724c0-.979 2.112-.933 2.112-.059v1.816h.372c2.226 0 2.945.953 2.973 2.623v13.825c0 1.729-.873 2.837-2.973 2.837H13.072c-2.1 0-2.972-1.108-2.972-2.837V10.1c.028-1.67.746-2.623 2.972-2.623zm7.274 9.775h4.465v4.993h-4.465zm-8.066-4.481h14.98v11.587H12.281z" data-name="Path 13" transform="translate(-10.1 -5)"/>
</svg>
