<svg xmlns="http://www.w3.org/2000/svg" id="invoice" width="27" height="27.048" viewBox="0 0 27 27.048">
    <g id="Allocation_Network-Management" transform="translate(-.048)">
        <g id="Group-17">
            <path id="Rectangle-37-Copy-23" fill="none" d="M0 0H27V27H0z" transform="translate(.048 .048)"/>
            <path id="Shape" fill="#011F3B" d="M22.229 7.972L14.755.563a2.062 2.062 0 0 0-.4-.3c-.033-.025-.071-.046-.111-.063-.024-.013-.051-.024-.075-.034A1.956 1.956 0 0 0 13.388 0H4.106a1.942 1.942 0 0 0-1.964 1.9v23.246a1.942 1.942 0 0 0 1.964 1.9h16.762a1.9 1.9 0 0 0 1.91-1.9V9.311a1.869 1.869 0 0 0-.549-1.339zm-7.845-5.056l5.4 5.325h-5.4zm6.457 22.23H4.079V1.9h8.368v6.341a1.942 1.942 0 0 0 1.964 1.9h6.43zM14.41 12.784a.959.959 0 0 0-.969-.951H6.554a.951.951 0 1 0 0 1.9h6.888a.959.959 0 0 0 .968-.949zm5.166 4.226a.959.959 0 0 0-.969-.951H6.554a.951.951 0 1 0 0 1.9h12.054a.959.959 0 0 0 .968-.949zm-3.444 4.226a.959.959 0 0 0-.969-.951H6.554a.951.951 0 1 0 0 1.9h8.61a.959.959 0 0 0 .968-.948z" transform="translate(1.076)"/>
        </g>
    </g>
</svg>
