<svg xmlns="http://www.w3.org/2000/svg" width="41.85" height="41" viewBox="0 0 41.85 41">
    <g id="logout-icon_1" transform="translate(.013 -5.199)">
        <path id="Path_61" fill="#404040" d="M37.457 36.186h-3.351a.752.752 0 0 0-.589.278c-.335.409-.695.793-1.071 1.169a16.912 16.912 0 0 1-27.5-5.37 16.68 16.68 0 0 1-1.324-6.572 16.885 16.885 0 0 1 1.324-6.572 16.98 16.98 0 0 1 8.991-8.983A16.989 16.989 0 0 1 20.5 8.829a16.818 16.818 0 0 1 11.942 4.945c.376.376.727.768 1.071 1.169a.74.74 0 0 0 .589.278h3.351a.381.381 0 0 0 .319-.589 20.5 20.5 0 1 0 0 22.143.384.384 0 0 0-.315-.589zM41.691 25.4l-6.76-5.338a.385.385 0 0 0-.621.3v3.621H19.344a.384.384 0 0 0-.384.384v2.673a.384.384 0 0 0 .384.384H34.31v3.621a.385.385 0 0 0 .621.3l6.76-5.338a.378.378 0 0 0 .065-.531.223.223 0 0 0-.065-.076z" data-name="Path 61"/>
    </g>
</svg>
