<svg xmlns="http://www.w3.org/2000/svg" width="25.156" height="25.156" viewBox="0 0 25.156 25.156">
    <g id="User" transform="translate(.1 .1)">
        <path id="Shape" fill="#011F3B" stroke="#011F3B" stroke-width="0.2px" d="M15.478 3A12.478 12.478 0 1 1 3 15.478 12.478 12.478 0 0 1 15.478 3zm0 7.039a3.586 3.586 0 0 0-3.519 3.733 3.639 3.639 0 0 0 1.28 2.911 2.926 2.926 0 0 1 .731.889 2.846 2.846 0 0 1 .253 1.967 1.446 1.446 0 0 1-.058.218c-.3 1.122-1.084 1.6-2.8 2.19l-.57.193c-.222.075-.395.136-.56.2a5.505 5.505 0 0 0-1.819.989 10.556 10.556 0 0 0 14.121 0 5.471 5.471 0 0 0-1.821-.965c-.143-.052-.293-.1-.483-.167l-.493-.165c-1.786-.6-2.59-1.09-2.936-2.23a2.441 2.441 0 0 1-.07-.286 3.04 3.04 0 0 1 .176-1.788 2.728 2.728 0 0 1 .753-1.018A3.611 3.611 0 0 0 19 13.772a3.625 3.625 0 0 0-3.522-3.733zm0-5.119a10.559 10.559 0 0 0-8.369 17 7.24 7.24 0 0 1 2.462-1.38c.184-.068.372-.134.608-.214l.566-.191c1.106-.378 1.5-.619 1.593-.956 0 .009 0-.007.009-.042a.981.981 0 0 0-.075-.665 1.157 1.157 0 0 0-.3-.347 5.563 5.563 0 0 1-1.93-4.349 5.5 5.5 0 0 1 5.439-5.653 5.542 5.542 0 0 1 5.439 5.653 5.529 5.529 0 0 1-1.994 4.386.859.859 0 0 0-.248.326 1.186 1.186 0 0 0-.055.674.676.676 0 0 0 .016.071c.1.324.521.581 1.717.984l.492.165c.2.068.364.124.521.181a7.22 7.22 0 0 1 2.48 1.357 10.558 10.558 0 0 0-8.368-17z" transform="translate(-3 -3)"/>
    </g>
</svg>
